<svg xmlns="http://www.w3.org/2000/svg" viewBox="0 0 64.07 83.7"><defs><style>.cls-1{fill:#808a90;}.cls-2{fill:#3c464c;}.cls-3{fill:#e31b22;}</style></defs><title>Asset 1</title><g id="Layer_2" data-name="Layer 2"><g id="Layer_1-2" data-name="Layer 1"><path class="cls-1" d="M62.2,81.28l-.82-1.55H60.3l1.4,2.48v1.42h1V82.21l1.4-2.48H63Zm-2.84.81h-1l.51-1.38Zm.28.8.26.74H61l-1.51-3.9H58.28l-1.51,3.9h1l.27-.74Zm-5.72-3.16-.66,2.77-.61-2.77h-1l.92,3.9h1.2l.61-2.53L55,83.63h1.21l.92-3.9h-1l-.61,2.77-.67-2.77ZM50,81.28l-.83-1.55H48.14l1.39,2.48v1.42h1V82.21l1.41-2.48H50.82Zm-3.68-.75.27,0c.37,0,.67.14.67.53s-.29.54-.7.54h-.24Zm0,1.85h.28l.84,1.25h1.15l-1-1.46a1.27,1.27,0,0,0,.7-1.15c0-.93-.67-1.35-1.67-1.35a9.07,9.07,0,0,0-1.23.08v3.88h1Zm-3.07.39V82.1h1.47v-.84H43.29v-.67H44.9v-.86H42.32v3.9H45v-.86Zm-2.52.86,1.45-3.9h-1l-1,2.91-1-2.91h-1l1.45,3.9Zm-4.31-.86V82.1h1.47v-.84H36.46v-.67h1.61v-.86H35.49v3.9h2.63v-.86Zm-5.17-3h-1v3.9h.94V81.29l1.63,2.34h.92v-3.9h-.94v2.39Zm-1.54,0h-1v3.9h1Zm-4.47.8.27,0c.37,0,.67.14.67.53s-.29.54-.7.54h-.24Zm0,1.85h.28l.84,1.25h1.15l-1-1.46a1.27,1.27,0,0,0,.7-1.15c0-.93-.67-1.35-1.67-1.35a9.07,9.07,0,0,0-1.23.08v3.88h1Zm-3.07.39V82.1h1.46v-.84H22.21v-.67h1.61v-.86H21.24v3.9h2.62v-.86ZM20.65,80a2.29,2.29,0,0,0-1.2-.29,1.92,1.92,0,0,0-2,2,1.88,1.88,0,0,0,2.06,2,2.67,2.67,0,0,0,1.31-.29V81.8h-.95v1a1.65,1.65,0,0,1-.34,0,1.07,1.07,0,0,1-1.08-1.17,1,1,0,0,1,1.08-1.14,1.72,1.72,0,0,1,1.14.43Zm-6.07-.23h-1v3.9h.95V81.29l1.62,2.34h.93v-3.9h-.95v2.39Zm-2.33,2a1,1,0,1,1-1-1.13,1,1,0,0,1,1,1.13m-3,0a2,2,0,0,0,2,2,2,2,0,1,0,0-4,2,2,0,0,0-2,2M7.07,80.53l.27,0c.37,0,.67.14.67.53s-.29.54-.69.54H7.07Zm0,1.85h.29l.84,1.25H9.34l-1-1.46A1.26,1.26,0,0,0,9,81c0-.93-.67-1.35-1.66-1.35a9.12,9.12,0,0,0-1.24.08v3.88h1Z"/><path class="cls-1" d="M1.85,79.71h-.1A1.24,1.24,0,0,0,.38,81c0,.65.3,1,1.12,1.16.41.1.59.18.59.4s-.18.32-.54.32a1.73,1.73,0,0,1-1.06-.4l0,0v1h0a2.2,2.2,0,0,0,1.09.27c.95,0,1.52-.45,1.52-1.21s-.31-1-1.09-1.22l-.1,0c-.35-.08-.52-.13-.52-.34s.14-.29.4-.29H3.7v3h1v-3h1.1v-.9h-4Z"/><path class="cls-2" d="M32.72,73.62a2.91,2.91,0,0,1-1.18.26c-1,0-1.33-.4-1.33-1a1.28,1.28,0,0,1,.67-1.16Zm0-5.24a1.4,1.4,0,0,1-.74,1.27c-.52-.58-.76-.88-.76-1.31a.75.75,0,0,1,1.5,0m1.52,3.76-1.14-1.25a3.39,3.39,0,0,0,1.13-1,2.8,2.8,0,0,0,.53-1.68,2.54,2.54,0,0,0-2.81-2.44A2.63,2.63,0,0,0,29,68.38a3,3,0,0,0,.75,2.08A2.49,2.49,0,0,0,27.94,73c0,1.69,1.24,2.73,3.34,2.73A5.38,5.38,0,0,0,34,75l.53.56h2.74L35.5,73.58a5.33,5.33,0,0,0,1.06-3.06H34.63a4.22,4.22,0,0,1-.44,1.62"/><path class="cls-2" d="M45.36,75.66a12.59,12.59,0,0,0,3.13-.41v-7H46.21V73.7a4.27,4.27,0,0,1-.85.1c-1,0-1.16-.43-1.16-1.22V68.27h-5V66.48l-2.27.6V73.2a2.3,2.3,0,0,0,2.57,2.46,4.18,4.18,0,0,0,2-.41V73.16a2.39,2.39,0,0,1-1.32.4c-.55,0-1-.21-1-1V70.17h2.69v2.62c0,2.25,1.35,2.87,3.44,2.87m9-3.93a1.75,1.75,0,0,1-1.88,2,2.67,2.67,0,0,1-.87-.15v-3a2,2,0,0,1,1.18-.37,1.51,1.51,0,0,1,1.57,1.56m2.33-.07a3.37,3.37,0,0,0-3.5-3.55,3.51,3.51,0,0,0-1.58.35V65.32l-2.28.59v9.18a8.13,8.13,0,0,0,3,.57c2.9,0,4.31-1.65,4.31-4m4.9-.35H59.11c.13-.79.56-1.34,1.3-1.34s1.13.65,1.13,1.34m2.09,1.28v-1c0-1.88-.77-3.5-3.17-3.5-2.06,0-3.57,1.45-3.57,3.89,0,2.22,1.45,3.66,3.89,3.66A5,5,0,0,0,63.44,75V73.14a5,5,0,0,1-2.4.58c-.84,0-1.75-.32-1.94-1.09v0Z"/><path class="cls-2" d="M6.39,73.2v-3h-3c-.62,0-.81.22-.81.46s.21.41.74.49c2.07.33,2.64,1,2.64,2.31,0,1.57-1.21,2.25-3,2.25a5.08,5.08,0,0,1-2.46-.58v-2a4.86,4.86,0,0,0,2.4.77c.5,0,.85-.08.85-.39s-.21-.44-.89-.53c-1.75-.24-2.49-1-2.49-2.3,0-1.65,1.29-2.39,2.93-2.39H6.39V67.08l2.26-.6v1.79h2.08v1.9H8.65v2.38c0,.8.4,1,.95,1a2.32,2.32,0,0,0,1.32-.41v2.1a4.29,4.29,0,0,1-2,.41A2.3,2.3,0,0,1,6.39,73.2m9.2-1.89H13.16c.13-.79.56-1.34,1.3-1.34s1.13.65,1.13,1.34m2.09,1.28v-1c0-1.88-.78-3.5-3.17-3.5-2.06,0-3.57,1.44-3.57,3.89,0,2.22,1.45,3.66,3.89,3.66A4.94,4.94,0,0,0,17.48,75V73.14a4.89,4.89,0,0,1-2.39.58c-.84,0-1.75-.32-1.95-1.1v0ZM21.45,70c-.74,0-1.17.55-1.3,1.34h2.42c0-.69-.28-1.34-1.12-1.34m-1.32,2.62v0c.19.78,1.11,1.1,1.95,1.1a4.94,4.94,0,0,0,2.39-.58V75a4.94,4.94,0,0,1-2.65.64c-2.44,0-3.89-1.44-3.89-3.66,0-2.45,1.51-3.89,3.57-3.89,2.39,0,3.16,1.62,3.16,3.5v1Zm7.41,2.91V65.32l-2.28.59V75.5Z"/><path class="cls-3" d="M63.68,48.06v6.41c-11.25,0-17.34-4.82-17.58-13.85V28.23A10.56,10.56,0,0,1,46.66,25a8.77,8.77,0,0,1,5.12-5.12,10.17,10.17,0,0,1,3.11-.55h8.79v6.45h-9a2,2,0,0,0-2.13,2V40c0,3.25.9,8.07,11.1,8.07M43.88,12a11.84,11.84,0,0,0,.56-3.26V0H37.93V9.2a1.93,1.93,0,0,1-2.06,2H16C8.26,11.18.5,16.5.5,26.25.5,39.65,15.19,42.31,20,44.65l.07,0c.94.43,1.25,1,1.25,1.54s-.68,2-4.27,2c-2.38,0-5.36-1.56-7.12-2.91L5.55,50.05A17.8,17.8,0,0,0,16.78,54.5c5,0,11-1.9,11-8.49,0-5.46-4.62-7.15-11.23-9.81C10.48,33.66,7,31.33,7,26.29c0-5.27,3.81-8.65,9.6-8.65H35.72a8.49,8.49,0,0,0,3.05-.55A8.78,8.78,0,0,0,43.88,12m7.9,5.12A8.8,8.8,0,0,1,46.66,12a10.58,10.58,0,0,1-.56-3.27V0h6.48V9.18a2,2,0,0,0,2.13,2h9v6.45H54.89a10.17,10.17,0,0,1-3.11-.55M63.68,62.6V56.14c-12.4,0-19.22-5.77-19.22-16.12l0-12.06a8.14,8.14,0,0,0-.56-3,8.78,8.78,0,0,0-5.11-5.12,9,9,0,0,0-3.05-.55H16.51c-5,0-7.77,2.92-7.77,6.8,0,4.11,2.25,5.81,8.59,8.58,5.58,2.45,12.2,4,12.2,11.33,0,6.51-4.83,10.21-12.75,10.21A19.45,19.45,0,0,1,4.39,51.35L0,56.22a26.73,26.73,0,0,0,16.78,6.41C28.21,62.63,36,56.9,36,46c0-13.37-12.84-15.65-19.9-18.81-.76-.3-1-.54-1-.88s.31-.61.86-.61H35.89a2,2,0,0,1,2,2.07V40.71c0,13.92,10.24,21.89,25.74,21.89"/></g></g></svg>